<svg width="262" height="28" viewBox="0 0 262 28" fill="none" xmlns="http://www.w3.org/2000/svg">
<g clip-path="url(#clip0_27730_24007)">
<mask id="mask0_27730_24007" style="mask-type:luminance" maskUnits="userSpaceOnUse" x="0" y="0" width="36" height="28">
<path d="M35.0306 0H0V28H35.0306V0Z" fill="white"/>
</mask>
<g mask="url(#mask0_27730_24007)">
<path d="M0 5.95V22.05C0 25.3361 2.66624 28 5.95521 28H29.0754C32.3644 28 35.0306 25.3361 35.0306 22.05V5.95C35.0306 2.66391 32.3644 0 29.0754 0H5.95521C2.66624 0 0 2.66391 0 5.95Z" fill="#111111"/>
<path d="M0 5.95V22.05C0 25.3361 2.66624 28 5.95521 28H29.0754C32.3644 28 35.0306 25.3361 35.0306 22.05V5.95C35.0306 2.66391 32.3644 0 29.0754 0H5.95521C2.66624 0 0 2.66391 0 5.95Z" fill="url(#paint0_linear_27730_24007)"/>
<path d="M8.75746 7C8.75746 6.0335 7.97327 5.25 7.00593 5.25C6.03859 5.25 5.25439 6.0335 5.25439 7C5.25439 7.9665 6.03859 8.75 7.00593 8.75C7.97327 8.75 8.75746 7.9665 8.75746 7Z" fill="url(#paint1_linear_27730_24007)"/>
<path d="M8.75746 7C8.75746 6.0335 7.97327 5.25 7.00593 5.25C6.03859 5.25 5.25439 6.0335 5.25439 7C5.25439 7.9665 6.03859 8.75 7.00593 8.75C7.97327 8.75 8.75746 7.9665 8.75746 7Z" fill="url(#paint2_linear_27730_24007)"/>
<path d="M8.75746 7C8.75746 6.0335 7.97327 5.25 7.00593 5.25C6.03859 5.25 5.25439 6.0335 5.25439 7C5.25439 7.9665 6.03859 8.75 7.00593 8.75C7.97327 8.75 8.75746 7.9665 8.75746 7Z" fill="url(#paint3_linear_27730_24007)"/>
<path d="M8.75746 20.9892C8.75746 20.0228 7.97327 19.2393 7.00593 19.2393C6.03859 19.2393 5.25439 20.0228 5.25439 20.9892C5.25439 21.9558 6.03859 22.7393 7.00593 22.7393C7.97327 22.7393 8.75746 21.9558 8.75746 20.9892Z" fill="url(#paint4_linear_27730_24007)"/>
<path d="M29.776 14C29.776 13.0335 28.9918 12.25 28.0245 12.25C27.0572 12.25 26.2729 13.0335 26.2729 14C26.2729 14.9664 27.0572 15.75 28.0245 15.75C28.9918 15.75 29.776 14.9664 29.776 14Z" fill="url(#paint5_linear_27730_24007)"/>
<path d="M29.776 14C29.776 13.0335 28.9918 12.25 28.0245 12.25C27.0572 12.25 26.2729 13.0335 26.2729 14C26.2729 14.9664 27.0572 15.75 28.0245 15.75C28.9918 15.75 29.776 14.9664 29.776 14Z" fill="url(#paint6_linear_27730_24007)"/>
<path d="M28.0245 5.25H14.0123C13.0449 5.25 12.2607 6.0335 12.2607 7C12.2607 7.9665 13.0449 8.75 14.0123 8.75H28.0245C28.9918 8.75 29.7761 7.9665 29.7761 7C29.7761 6.0335 28.9918 5.25 28.0245 5.25Z" fill="url(#paint7_linear_27730_24007)"/>
<path d="M28.0245 19.2393H14.0123C13.0449 19.2393 12.2607 20.0228 12.2607 20.9892C12.2607 21.9558 13.0449 22.7393 14.0123 22.7393H28.0245C28.9918 22.7393 29.7761 21.9558 29.7761 20.9892C29.7761 20.0228 28.9918 19.2393 28.0245 19.2393Z" fill="url(#paint8_linear_27730_24007)"/>
<path d="M21.0182 12.25H7.00593C6.03858 12.25 5.25439 13.0335 5.25439 14C5.25439 14.9664 6.03858 15.75 7.00593 15.75H21.0182C21.9855 15.75 22.7697 14.9664 22.7697 14C22.7697 13.0335 21.9855 12.25 21.0182 12.25Z" fill="url(#paint9_linear_27730_24007)"/>
</g>
<path d="M49.6501 23.2816C53.0634 23.2816 55.4692 21.3413 55.4692 18.371C55.4933 15.8085 53.9474 14.3228 51.3688 13.3889L49.6009 12.7421C47.8089 12.0954 46.9491 11.5446 46.9491 10.2992C46.9491 9.05361 48.2257 8.33533 49.6994 8.33533C51.0745 8.33533 52.1302 8.88604 53.0142 9.91602L55.0031 8.02367C53.7264 6.51454 51.8852 5.7002 49.7245 5.7002C46.483 5.7002 44.0532 7.52098 44.0532 10.4912C44.0532 12.8147 45.4032 14.2993 48.1776 15.2823L50.0932 15.9526C51.7627 16.5513 52.5733 17.3176 52.5733 18.5396C52.5733 19.8086 51.3951 20.6475 49.7497 20.6475C48.0551 20.6475 46.6066 19.8332 45.6986 18.4681L43.4395 20.2164C44.4689 22.0596 46.8506 23.2816 49.6501 23.2816ZM63.288 23.2335C65.8667 23.2335 67.7811 22.1791 68.8861 20.4554L66.8239 19.0178C66.1609 20.0722 65.056 20.8385 63.3132 20.8385C61.251 20.8385 59.6548 19.5696 59.5323 17.5812H69.1815C69.2055 17.198 69.2055 16.9824 69.2055 16.7189C69.2055 12.8628 66.5296 10.7783 63.288 10.7783C59.5564 10.7783 56.8794 13.485 56.8794 17.006C56.8794 20.6699 59.5553 23.2335 63.288 23.2335ZM59.6538 15.6644C60.0465 13.8917 61.5935 13.0057 63.1896 13.0057C64.7605 13.0057 66.1849 13.9396 66.4793 15.6644H59.6538ZM83.2362 28.0001V11.0174H80.5351V12.6226C79.848 11.6642 78.3744 10.7783 76.6065 10.7783C73.2424 10.7783 70.689 13.581 70.689 17.006C70.689 20.4309 73.2424 23.2335 76.6065 23.2335C78.3744 23.2335 79.848 22.3477 80.5351 21.3893V28.0001H83.2362ZM77.0977 20.8375C74.937 20.8375 73.4394 19.1608 73.4394 17.0049C73.4394 14.849 74.937 13.1722 77.0977 13.1722C79.2584 13.1722 80.7561 14.849 80.7561 17.0049C80.7561 19.1608 79.2584 20.8375 77.0977 20.8375ZM90.2248 23.2335C91.7959 23.2335 93.0971 22.5867 93.8101 21.3648V22.9934H96.5108V11.0174H93.8101V16.9099C93.8101 19.497 92.5823 20.8385 90.814 20.8385C89.2438 20.8385 88.3594 19.6646 88.3594 17.7488V11.0174H85.6583V18.1799C85.6583 21.2452 87.401 23.2335 90.2248 23.2335ZM104.958 23.2335C107.537 23.2335 109.451 22.1791 110.556 20.4554L108.494 19.0178C107.83 20.0722 106.725 20.8385 104.983 20.8385C102.921 20.8385 101.325 19.5696 101.202 17.5812H110.851C110.875 17.198 110.875 16.9824 110.875 16.7189C110.875 12.8628 108.199 10.7783 104.958 10.7783C101.226 10.7783 98.549 13.485 98.549 17.006C98.549 20.6699 101.225 23.2335 104.958 23.2335ZM101.323 15.6644C101.716 13.8917 103.263 13.0057 104.859 13.0057C106.43 13.0057 107.854 13.9396 108.149 15.6644H101.323ZM112.914 22.9934H115.616V17.101C115.616 14.5138 116.99 13.1722 118.783 13.1722C120.354 13.1722 121.336 14.2982 121.336 16.214V22.9924H124.037V15.7828C124.037 12.741 122.196 10.7762 119.347 10.7762C117.751 10.7762 116.376 11.423 115.616 12.6451V11.0174H112.914V22.9934ZM132.354 23.2335C134.907 23.2335 137.019 21.9401 138.074 19.9282L135.717 18.6827C135.127 19.9047 133.925 20.7905 132.353 20.7905C130.168 20.7905 128.621 19.1373 128.621 17.006C128.621 14.8746 130.168 13.2213 132.353 13.2213C133.924 13.2213 135.127 14.1072 135.717 15.3292L138.074 14.0837C137.019 12.0719 134.907 10.7783 132.354 10.7783C128.672 10.7783 125.872 13.4615 125.872 17.006C125.872 20.5504 128.672 23.2335 132.354 23.2335ZM145.356 23.2335C147.935 23.2335 149.849 22.1791 150.954 20.4554L148.892 19.0178C148.229 20.0722 147.124 20.8385 145.381 20.8385C143.318 20.8385 141.723 19.5696 141.6 17.5812H151.25C151.274 17.198 151.274 16.9824 151.274 16.7189C151.274 12.8628 148.598 10.7783 145.356 10.7783C141.623 10.7783 138.947 13.485 138.947 17.006C138.947 20.6699 141.623 23.2335 145.356 23.2335ZM141.722 15.6644C142.114 13.8917 143.662 13.0057 145.257 13.0057C146.828 13.0057 148.253 13.9396 148.547 15.6644H141.722Z" fill="white"/>
</g>
<path d="M172.749 22.5L168.772 12.0384L164.794 22.5H162.191L157.78 5.38544H160.745L163.854 17.8236L168.772 5.09618L173.665 17.8236L176.798 5.38544H179.788L175.352 22.5H172.749ZM185.909 22.7411C184.077 22.7411 182.567 22.1545 181.378 20.9814C180.205 19.8083 179.618 18.3057 179.618 16.4737C179.618 14.69 180.213 13.2035 181.402 12.0143C182.591 10.8091 184.094 10.2064 185.909 10.2064C187.581 10.2064 188.963 10.7368 190.056 11.7974C191.164 12.858 191.719 14.3204 191.719 16.1845C191.719 16.5059 191.711 16.7951 191.695 17.0523H182.221C182.286 18.0325 182.663 18.828 183.354 19.4387C184.045 20.0333 184.905 20.3305 185.934 20.3305C187.476 20.3305 188.625 19.7199 189.381 18.4986L191.405 19.9449C190.248 21.809 188.416 22.7411 185.909 22.7411ZM182.342 15.1239H189.043C188.898 14.2882 188.521 13.6374 187.91 13.1714C187.316 12.6893 186.617 12.4482 185.813 12.4482C184.977 12.4482 184.23 12.6812 183.571 13.1473C182.928 13.6133 182.519 14.2722 182.342 15.1239ZM200.254 22.7411C199.434 22.7411 198.671 22.5643 197.964 22.2107C197.273 21.8411 196.743 21.3992 196.373 20.885V22.5H193.721V4.42124H196.373V12.0625C196.743 11.5483 197.273 11.1144 197.964 10.7609C198.671 10.3912 199.434 10.2064 200.254 10.2064C201.893 10.2064 203.267 10.8171 204.376 12.0384C205.501 13.2597 206.063 14.7382 206.063 16.4737C206.063 18.2093 205.501 19.6877 204.376 20.9091C203.267 22.1304 201.893 22.7411 200.254 22.7411ZM199.772 20.3305C200.816 20.3305 201.676 19.9609 202.351 19.2217C203.026 18.4825 203.363 17.5665 203.363 16.4737C203.363 15.381 203.026 14.465 202.351 13.7258C201.676 12.9866 200.816 12.6169 199.772 12.6169C198.711 12.6169 197.843 12.9866 197.168 13.7258C196.493 14.465 196.156 15.381 196.156 16.4737C196.156 17.5665 196.493 18.4825 197.168 19.2217C197.843 19.9609 198.711 20.3305 199.772 20.3305ZM207.751 17.0523V14.4489H214.235V17.0523H207.751ZM221.396 22.7893C220.03 22.7893 218.8 22.508 217.708 21.9456C216.615 21.3831 215.811 20.6359 215.297 19.7038L217.515 17.9442C218.463 19.4065 219.789 20.1377 221.492 20.1377C222.312 20.1377 222.978 19.9449 223.493 19.5592C224.007 19.1574 224.264 18.6432 224.264 18.0165C224.264 16.8755 223.453 16.0077 221.829 15.4131L219.949 14.7382C218.567 14.24 217.547 13.6052 216.888 12.8339C216.229 12.0465 215.9 11.0742 215.9 9.91718C215.9 8.45481 216.422 7.28974 217.466 6.42196C218.511 5.5381 219.845 5.09618 221.468 5.09618C223.637 5.09618 225.365 5.87558 226.65 7.43437L224.698 9.33866C223.814 8.27804 222.729 7.74773 221.444 7.74773C220.689 7.74773 220.046 7.9245 219.515 8.27804C219.001 8.63158 218.744 9.11368 218.744 9.72434C218.744 10.3189 218.937 10.793 219.323 11.1465C219.724 11.484 220.399 11.8295 221.347 12.1831L223.083 12.8339C224.401 13.3321 225.405 13.9829 226.096 14.7864C226.787 15.5899 227.125 16.6103 227.108 17.8477C227.108 19.3262 226.578 20.5234 225.518 21.4394C224.457 22.3393 223.083 22.7893 221.396 22.7893ZM229.435 22.5V5.38544H234.69C237.229 5.38544 239.358 6.20501 241.078 7.84415C242.797 9.48329 243.657 11.5161 243.657 13.9427C243.657 16.3693 242.797 18.4021 241.078 20.0413C239.358 21.6804 237.229 22.5 234.69 22.5H229.435ZM232.255 19.8726H234.69C236.49 19.8726 237.952 19.3101 239.077 18.1852C240.218 17.0603 240.789 15.6461 240.789 13.9427C240.789 12.2393 240.218 10.8251 239.077 9.70024C237.952 8.57534 236.49 8.01289 234.69 8.01289H232.255V19.8726ZM257.15 22.5L248.834 14.4971V22.5H246.038V5.38544H248.834V12.7616L255.704 5.38544H259.271L251.654 13.5811L260.959 22.5H257.15Z" fill="#888888"/>
<defs>
<linearGradient id="paint0_linear_27730_24007" x1="17.5153" y1="3.57726e-06" x2="17.5153" y2="28.0291" gradientUnits="userSpaceOnUse">
<stop stop-color="#1D273D"/>
<stop offset="1" stop-color="#0D0F13"/>
</linearGradient>
<linearGradient id="paint1_linear_27730_24007" x1="5.79402" y1="8.72604" x2="8.17142" y2="5.54468" gradientUnits="userSpaceOnUse">
<stop stop-color="#4462FE"/>
<stop offset="1" stop-color="#7D69FA"/>
</linearGradient>
<linearGradient id="paint2_linear_27730_24007" x1="5.56224" y1="8.7517" x2="8.50421" y2="8.60077" gradientUnits="userSpaceOnUse">
<stop stop-color="#3757FD"/>
<stop offset="1" stop-color="#6980FA"/>
</linearGradient>
<linearGradient id="paint3_linear_27730_24007" x1="5.56224" y1="8.7517" x2="8.50421" y2="8.60077" gradientUnits="userSpaceOnUse">
<stop stop-color="#2447FF"/>
<stop offset="1" stop-color="#6980FA"/>
</linearGradient>
<linearGradient id="paint4_linear_27730_24007" x1="5.74979" y1="22.168" x2="8.08506" y2="19.6916" gradientUnits="userSpaceOnUse">
<stop stop-color="#BC3EE6"/>
<stop offset="1" stop-color="#D972F1"/>
</linearGradient>
<linearGradient id="paint5_linear_27730_24007" x1="26.9806" y1="15.1604" x2="29.1396" y2="12.8609" gradientUnits="userSpaceOnUse">
<stop stop-color="#29BDFF"/>
<stop offset="1" stop-color="#96E7FB"/>
</linearGradient>
<linearGradient id="paint6_linear_27730_24007" x1="26.5543" y1="15.726" x2="29.5961" y2="15.5799" gradientUnits="userSpaceOnUse">
<stop stop-color="#23BBFF"/>
<stop offset="1" stop-color="#85E7FF"/>
</linearGradient>
<linearGradient id="paint7_linear_27730_24007" x1="13.6673" y1="8.72604" x2="28.0808" y2="5.26491" gradientUnits="userSpaceOnUse">
<stop stop-color="#23BBFF"/>
<stop offset="1" stop-color="#85E7FF"/>
</linearGradient>
<linearGradient id="paint8_linear_27730_24007" x1="13.8" y1="22.741" x2="27.638" y2="19.1913" gradientUnits="userSpaceOnUse">
<stop stop-color="#2447FF"/>
<stop offset="1" stop-color="#6980FA"/>
</linearGradient>
<linearGradient id="paint9_linear_27730_24007" x1="7.60747" y1="15.7773" x2="20.826" y2="12.2278" gradientUnits="userSpaceOnUse">
<stop stop-color="#6634FF"/>
<stop offset="1" stop-color="#9C6DFF"/>
</linearGradient>
<clipPath id="clip0_27730_24007">
<rect width="151.273" height="28" fill="white"/>
</clipPath>
</defs>
</svg>
