<svg width="262" height="28" viewBox="0 0 262 28" fill="none" xmlns="http://www.w3.org/2000/svg">
<path d="M172.749 22.5L168.772 12.0384L164.794 22.5H162.191L157.78 5.38546H160.745L163.854 17.8236L168.772 5.0962L173.665 17.8236L176.798 5.38546H179.788L175.352 22.5H172.749ZM185.909 22.7411C184.077 22.7411 182.567 22.1545 181.378 20.9814C180.205 19.8083 179.618 18.3057 179.618 16.4737C179.618 14.69 180.213 13.2035 181.402 12.0143C182.591 10.8091 184.094 10.2064 185.909 10.2064C187.581 10.2064 188.963 10.7368 190.056 11.7974C191.164 12.858 191.719 14.3204 191.719 16.1845C191.719 16.5059 191.711 16.7951 191.695 17.0523H182.221C182.286 18.0325 182.663 18.828 183.354 19.4387C184.045 20.0333 184.905 20.3305 185.934 20.3305C187.476 20.3305 188.625 19.7199 189.381 18.4986L191.405 19.9449C190.248 21.809 188.416 22.7411 185.909 22.7411ZM182.342 15.1239H189.043C188.898 14.2882 188.521 13.6374 187.91 13.1714C187.316 12.6893 186.617 12.4482 185.813 12.4482C184.977 12.4482 184.23 12.6812 183.571 13.1473C182.928 13.6133 182.519 14.2722 182.342 15.1239ZM200.254 22.7411C199.434 22.7411 198.671 22.5643 197.964 22.2107C197.273 21.8411 196.743 21.3992 196.373 20.885V22.5H193.721V4.42126H196.373V12.0625C196.743 11.5483 197.273 11.1144 197.964 10.7609C198.671 10.3912 199.434 10.2064 200.254 10.2064C201.893 10.2064 203.267 10.8171 204.376 12.0384C205.501 13.2597 206.063 14.7382 206.063 16.4737C206.063 18.2093 205.501 19.6877 204.376 20.9091C203.267 22.1304 201.893 22.7411 200.254 22.7411ZM199.772 20.3305C200.816 20.3305 201.676 19.9609 202.351 19.2217C203.026 18.4825 203.363 17.5665 203.363 16.4737C203.363 15.381 203.026 14.465 202.351 13.7258C201.676 12.9866 200.816 12.6169 199.772 12.6169C198.711 12.6169 197.843 12.9866 197.168 13.7258C196.493 14.465 196.156 15.381 196.156 16.4737C196.156 17.5665 196.493 18.4825 197.168 19.2217C197.843 19.9609 198.711 20.3305 199.772 20.3305ZM207.751 17.0523V14.4489H214.235V17.0523H207.751ZM221.396 22.7893C220.03 22.7893 218.8 22.508 217.708 21.9456C216.615 21.3831 215.811 20.6359 215.297 19.7038L217.515 17.9442C218.463 19.4065 219.789 20.1377 221.492 20.1377C222.312 20.1377 222.978 19.9449 223.493 19.5592C224.007 19.1574 224.264 18.6432 224.264 18.0165C224.264 16.8755 223.453 16.0077 221.829 15.4131L219.949 14.7382C218.567 14.24 217.547 13.6052 216.888 12.8339C216.229 12.0465 215.9 11.0742 215.9 9.9172C215.9 8.45483 216.422 7.28976 217.466 6.42198C218.511 5.53812 219.845 5.0962 221.468 5.0962C223.637 5.0962 225.365 5.8756 226.65 7.43439L224.698 9.33869C223.814 8.27807 222.729 7.74775 221.444 7.74775C220.689 7.74775 220.046 7.92452 219.515 8.27806C219.001 8.6316 218.744 9.11371 218.744 9.72437C218.744 10.3189 218.937 10.793 219.323 11.1465C219.724 11.484 220.399 11.8295 221.347 12.1831L223.083 12.8339C224.401 13.3321 225.405 13.9829 226.096 14.7864C226.787 15.5899 227.125 16.6103 227.108 17.8477C227.108 19.3262 226.578 20.5234 225.518 21.4394C224.457 22.3393 223.083 22.7893 221.396 22.7893ZM229.435 22.5V5.38546H234.69C237.229 5.38546 239.358 6.20503 241.078 7.84417C242.797 9.48331 243.657 11.5161 243.657 13.9427C243.657 16.3693 242.797 18.4021 241.078 20.0413C239.358 21.6804 237.229 22.5 234.69 22.5H229.435ZM232.255 19.8726H234.69C236.49 19.8726 237.952 19.3101 239.077 18.1852C240.218 17.0603 240.789 15.6461 240.789 13.9427C240.789 12.2393 240.218 10.8251 239.077 9.70026C237.952 8.57536 236.49 8.01291 234.69 8.01291H232.255V19.8726ZM257.15 22.5L248.834 14.4971V22.5H246.038V5.38546H248.834V12.7616L255.704 5.38546H259.271L251.654 13.5811L260.959 22.5H257.15Z" fill="#888888"/>
<path fill-rule="evenodd" clip-rule="evenodd" d="M73.6824 7.25458C74.441 7.25458 75.0702 7.38697 75.5702 7.65184C76.0702 7.91083 76.4696 8.22869 76.7684 8.60541C77.0672 8.98218 77.2971 9.34416 77.458 9.6915H77.6304V7.43116H80.9752V26.0784H77.5788V18.8385H77.458C77.2914 19.1916 77.0529 19.5535 76.7427 19.9243C76.438 20.2892 76.0357 20.5983 75.5357 20.8514C75.0358 21.0986 74.418 21.2223 73.6824 21.2223C72.6594 21.2223 71.7398 20.9514 70.9238 20.4099C70.1078 19.8684 69.4612 19.0797 68.9842 18.0438C68.5073 17.0019 68.2688 15.7304 68.2688 14.2295C68.2688 12.6991 68.513 11.4161 69.0015 10.38C69.4899 9.34416 70.1423 8.5642 70.9584 8.04033C71.7802 7.51648 72.6882 7.25458 73.6824 7.25458ZM74.6995 10.0623C74.0501 10.0623 73.5041 10.2389 73.0616 10.5919C72.6248 10.9451 72.2944 11.4336 72.0703 12.0576C71.8462 12.6816 71.7343 13.3997 71.7343 14.2118C71.7343 15.03 71.8462 15.7569 72.0703 16.3926C72.3002 17.0224 72.6336 17.5169 73.0703 17.876C73.5128 18.235 74.0558 18.4146 74.6995 18.4146C75.3258 18.4146 75.8575 18.2409 76.2943 17.8936C76.7368 17.5405 77.0729 17.0491 77.3028 16.4193C77.5327 15.7894 77.6477 15.0535 77.6477 14.2118C77.6477 13.3702 77.5327 12.6403 77.3028 12.0223C77.0788 11.3983 76.7455 10.9157 76.303 10.5744C75.8663 10.2329 75.3317 10.0623 74.6995 10.0623Z" fill="black"/>
<path d="M46.6044 7.25458C48.2193 7.25458 49.4893 7.60483 50.4146 8.30527C51.3456 9.00575 51.9031 9.95626 52.0869 11.157L48.9836 11.4218C48.9147 11.1276 48.7824 10.8568 48.5871 10.6097C48.3974 10.3566 48.1418 10.1564 47.8199 10.0093C47.4981 9.85625 47.1101 9.77966 46.6562 9.77966C46.047 9.77966 45.5354 9.91218 45.1217 10.1771C44.7079 10.442 44.501 10.7921 44.501 11.2276C44.501 11.5867 44.6361 11.8839 44.9062 12.1194C45.1763 12.3549 45.6332 12.5462 46.2769 12.6934L48.6043 13.1878C49.8744 13.4585 50.8198 13.894 51.4404 14.4944C52.0668 15.0948 52.38 15.8836 52.38 16.8606C52.38 17.7317 52.1328 18.497 51.6387 19.1563C51.1445 19.8155 50.4635 20.3305 49.5957 20.7013C48.728 21.0721 47.7307 21.2576 46.6044 21.2576C44.9206 21.2576 43.57 20.8956 42.5528 20.1716C41.5414 19.4475 40.9438 18.4499 40.7598 17.1784L44.0873 16.9313C44.2138 17.5081 44.4924 17.9466 44.9235 18.2468C45.3603 18.547 45.9206 18.697 46.6044 18.697C47.2998 18.697 47.8573 18.5559 48.2767 18.2734C48.7021 17.9849 48.9147 17.6257 48.9147 17.1961C48.9145 16.8312 48.771 16.531 48.4838 16.2955C48.2021 16.0542 47.7653 15.8717 47.1734 15.7481L44.8975 15.2714C43.616 15.0006 42.6649 14.5415 42.0442 13.894C41.4293 13.2466 41.1219 12.4225 41.1219 11.4218C41.1219 10.5684 41.3489 9.82974 41.8029 9.20579C42.2627 8.58189 42.9035 8.10214 43.7253 7.76663C44.5528 7.42525 45.5125 7.25458 46.6044 7.25458Z" fill="black"/>
<path fill-rule="evenodd" clip-rule="evenodd" d="M60.3848 7.25458C61.2296 7.25458 62.0226 7.39286 62.7641 7.66952C63.5054 7.94616 64.1578 8.36705 64.7209 8.9321C65.2841 9.49719 65.7237 10.2124 66.0398 11.0777C66.3617 11.9369 66.5225 12.9523 66.5225 14.1236V15.1301H57.4028C57.4069 15.8448 57.5386 16.46 57.7987 16.9754C58.0631 17.4992 58.4338 17.9025 58.9109 18.185C59.3878 18.4676 59.9481 18.6089 60.5918 18.6089C61.0227 18.6089 61.4136 18.547 61.7641 18.4234C62.1204 18.2939 62.4251 18.1055 62.6779 17.8583C62.9365 17.6111 63.1318 17.308 63.264 16.9489L66.4191 17.2314C66.241 18.0437 65.8904 18.753 65.3674 19.3592C64.8444 19.9596 64.1749 20.4276 63.3588 20.7631C62.5428 21.0927 61.6032 21.2576 60.54 21.2576C59.1952 21.2576 58.0373 20.975 57.066 20.4099C56.0948 19.8389 55.3476 19.0325 54.8248 17.9908C54.3018 16.9431 54.0403 15.707 54.0403 14.2825C54.0403 12.8876 54.3018 11.6632 54.8248 10.6097C55.3535 9.5502 56.092 8.72607 57.0402 8.13746C57.9884 7.54887 59.1033 7.25458 60.3848 7.25458ZM60.4367 9.90326C59.8389 9.90326 59.313 10.0475 58.8591 10.336C58.405 10.6244 58.0488 11.0071 57.7901 11.4837C57.5609 11.9106 57.4336 12.3784 57.4074 12.8874H63.2985C63.2985 12.3106 63.1778 11.7986 62.9365 11.3513C62.695 10.8981 62.3589 10.5448 61.9278 10.2917C61.5026 10.0327 61.0055 9.90326 60.4367 9.90326Z" fill="black"/>
<path fill-rule="evenodd" clip-rule="evenodd" d="M104.295 7.25458C105.139 7.25459 105.933 7.39287 106.674 7.66952C107.415 7.94616 108.068 8.36707 108.631 8.9321C109.194 9.49719 109.634 10.2124 109.95 11.0777C110.272 11.9369 110.432 12.9523 110.432 14.1236V15.1301H101.313C101.317 15.8448 101.448 16.46 101.709 16.9754C101.973 17.4992 102.344 17.9025 102.821 18.185C103.298 18.4676 103.858 18.6089 104.502 18.6089C104.933 18.6089 105.323 18.547 105.674 18.4234C106.03 18.2939 106.335 18.1055 106.588 17.8583C106.846 17.6111 107.042 17.308 107.174 16.9489L110.329 17.2314C110.151 18.0437 109.8 18.753 109.277 19.3592C108.754 19.9596 108.085 20.4276 107.269 20.7631C106.453 21.0927 105.513 21.2576 104.45 21.2576C103.105 21.2576 101.947 20.975 100.976 20.4099C100.005 19.8389 99.2575 19.0325 98.7347 17.9908C98.2117 16.9431 97.9502 15.707 97.9502 14.2825C97.9502 12.8876 98.2117 11.6632 98.7347 10.6097C99.2634 9.5502 100.002 8.72607 100.95 8.13746C101.898 7.54884 103.013 7.25458 104.295 7.25458ZM104.346 9.90326C103.749 9.90326 103.223 10.0475 102.769 10.336C102.315 10.6244 101.959 11.0071 101.7 11.4837C101.471 11.9106 101.343 12.3784 101.317 12.8874H107.208C107.208 12.3106 107.088 11.7986 106.846 11.3513C106.605 10.8981 106.269 10.5448 105.838 10.2917C105.413 10.0327 104.915 9.90326 104.346 9.90326Z" fill="black"/>
<path d="M133.274 7.25458C134.388 7.25458 135.372 7.46351 136.222 7.88143C137.073 8.29346 137.747 8.87909 138.248 9.63836C138.748 10.3919 139.026 11.2748 139.084 12.2872H135.859C135.75 11.6221 135.478 11.0775 135.041 10.6537C134.61 10.2241 134.038 10.0093 133.326 10.0093C132.721 10.0093 132.193 10.1771 131.739 10.5126C131.291 10.8422 130.94 11.3218 130.688 11.9516C130.435 12.5755 130.308 13.3289 130.308 14.2118C130.308 15.1065 130.432 15.8717 130.678 16.5074C130.932 17.1372 131.282 17.6229 131.731 17.9643C132.185 18.2998 132.716 18.4676 133.326 18.4676C133.767 18.4676 134.165 18.3793 134.515 18.2027C134.865 18.0202 135.155 17.7612 135.385 17.4257C135.621 17.0842 135.779 16.6723 135.859 16.1896H139.084C139.02 17.1844 138.745 18.0643 138.256 18.8296C137.774 19.5888 137.11 20.1833 136.265 20.6131C135.426 21.0428 134.435 21.2576 133.291 21.2576C131.952 21.2576 130.802 20.9603 129.842 20.3658C128.883 19.7713 128.145 18.9502 127.627 17.9025C127.116 16.8489 126.86 15.6363 126.86 14.2648C126.86 12.8816 127.122 11.6632 127.645 10.6097C128.168 9.55606 128.907 8.73486 129.86 8.14622C130.82 7.55174 131.957 7.25458 133.274 7.25458Z" fill="black"/>
<path fill-rule="evenodd" clip-rule="evenodd" d="M147.091 7.25458C147.936 7.25459 148.728 7.39289 149.469 7.66952C150.211 7.94616 150.864 8.36705 151.426 8.9321C151.99 9.49719 152.43 10.2124 152.746 11.0777C153.067 11.9369 153.228 12.9523 153.228 14.1236V15.1301H144.108C144.113 15.8448 144.245 16.46 144.505 16.9754C144.769 17.4992 145.139 17.9025 145.616 18.185C146.093 18.4676 146.654 18.6089 147.297 18.6089C147.729 18.6089 148.119 18.547 148.469 18.4234C148.826 18.2939 149.131 18.1055 149.383 17.8583C149.642 17.6111 149.838 17.308 149.97 16.9489L153.125 17.2314C152.946 18.0437 152.596 18.753 152.073 19.3592C151.55 19.9596 150.88 20.4276 150.064 20.7631C149.248 21.0927 148.309 21.2576 147.246 21.2576C145.901 21.2576 144.743 20.975 143.772 20.4099C142.801 19.8389 142.053 19.0325 141.53 17.9908C141.007 16.9431 140.746 15.707 140.746 14.2825C140.746 12.8876 141.007 11.6632 141.53 10.6097C142.059 9.5502 142.798 8.72607 143.746 8.13746C144.694 7.54885 145.81 7.25458 147.091 7.25458ZM147.143 9.90326C146.545 9.90326 146.019 10.0475 145.564 10.336C145.111 10.6244 144.754 11.0071 144.495 11.4837C144.266 11.9106 144.14 12.3784 144.113 12.8874H150.004C150.004 12.3106 149.883 11.7986 149.642 11.3513C149.401 10.8981 149.065 10.5448 148.634 10.2917C148.208 10.0327 147.711 9.90326 147.143 9.90326Z" fill="black"/>
<path d="M87.2063 15.4835C87.2122 16.3134 87.4334 16.9726 87.8701 17.4611C88.3069 17.9438 88.8845 18.1851 89.6028 18.1851C90.0569 18.1851 90.4879 18.0762 90.896 17.8584C91.3039 17.6348 91.6372 17.3081 91.8958 16.8785C92.1544 16.4428 92.2808 15.9013 92.2751 15.2539V7.43134H95.6716V20.9928H92.3959V18.556H92.2579C91.959 19.3329 91.4647 19.9628 90.7752 20.4455C90.0913 20.9281 89.2523 21.1694 88.258 21.1694C87.3846 21.1694 86.6116 20.9663 85.9393 20.5603C85.2727 20.1541 84.7525 19.5713 84.3789 18.812C84.0055 18.0527 83.8158 17.1374 83.8101 16.0661V7.43134H87.2063V15.4835Z" fill="black"/>
<path d="M120.058 7.25458C120.977 7.25458 121.776 7.45761 122.454 7.86376C123.138 8.2699 123.67 8.85273 124.049 9.61199C124.428 10.3713 124.615 11.2865 124.609 12.3578V20.9927H121.213V12.9404C121.219 12.0693 121 11.3896 120.557 10.9011C120.121 10.4125 119.517 10.1682 118.747 10.1682C118.23 10.1682 117.77 10.283 117.368 10.5126C116.972 10.742 116.661 11.0775 116.437 11.519C116.213 11.9545 116.098 12.4814 116.092 13.0993V20.9927H112.696V7.43116H115.937V9.77966H116.092C116.391 9.00268 116.88 8.38767 117.558 7.93444C118.242 7.48121 119.075 7.25458 120.058 7.25458Z" fill="black"/>
<path d="M29.7598 14.0511C29.7598 12.9 28.8485 11.9666 27.7246 11.9666C26.6006 11.9666 25.6895 12.9 25.6895 14.0511C25.6895 15.2023 26.6006 16.1356 27.7246 16.1356C28.8485 16.1356 29.7598 15.2023 29.7598 14.0511Z" fill="#7C3AED"/>
<path d="M9.19094 7.09202C9.19094 5.94081 8.2798 5.00757 7.15579 5.00757C6.03178 5.00757 5.12061 5.94081 5.12061 7.09202C5.12061 8.24323 6.03178 9.17648 7.15579 9.17648C8.2798 9.17648 9.19094 8.24323 9.19094 7.09202Z" fill="#7C3AED"/>
<path d="M9.19094 21.121C9.19094 19.9698 8.2798 19.0366 7.15579 19.0366C6.03178 19.0366 5.12061 19.9698 5.12061 21.121C5.12061 22.2723 6.03178 23.2055 7.15579 23.2055C8.2798 23.2055 9.19094 22.2723 9.19094 21.121Z" fill="#7C3AED"/>
<path d="M29.936 21.0104C29.936 20.0496 29.1755 19.2706 28.2373 19.2706H13.1547C12.2166 19.2706 11.4561 20.0496 11.4561 21.0104C11.4561 21.9712 12.2166 22.7502 13.1547 22.7502H28.2373C29.1755 22.7502 29.936 21.9712 29.936 21.0104Z" fill="#7C3AED"/>
<path d="M23.4242 14.051C23.4242 13.0902 22.6637 12.3112 21.7256 12.3112H6.81924C5.88113 12.3112 5.12061 13.0902 5.12061 14.051C5.12061 15.0119 5.88113 15.7907 6.81924 15.7907H21.7256C22.6637 15.7907 23.4242 15.0119 23.4242 14.051Z" fill="#7C3AED"/>
<path d="M29.936 7.09201C29.936 6.13117 29.1755 5.35223 28.2373 5.35223H13.1547C12.2166 5.35223 11.4561 6.13117 11.4561 7.09201C11.4561 8.05286 12.2166 8.83178 13.1547 8.83178H28.2373C29.1755 8.83178 29.936 8.05286 29.936 7.09201Z" fill="#7C3AED"/>
</svg>
