<?xml version="1.0" encoding="UTF-8" standalone="no"?>
<svg
   width="262"
   height="28"
   viewBox="0 0 262 28"
   fill="none"
   version="1.1"
   id="svg33"
   sodipodi:docname="sequene-web-sdk.svg"
   xml:space="preserve"
   inkscape:version="1.4.2 (2aeb623e1d, 2025-05-12)"
   xmlns:inkscape="http://www.inkscape.org/namespaces/inkscape"
   xmlns:sodipodi="http://sodipodi.sourceforge.net/DTD/sodipodi-0.dtd"
   xmlns="http://www.w3.org/2000/svg"
   xmlns:svg="http://www.w3.org/2000/svg"><sodipodi:namedview
     id="namedview33"
     pagecolor="#ffffff"
     bordercolor="#000000"
     borderopacity="0.25"
     inkscape:showpageshadow="2"
     inkscape:pageopacity="0.0"
     inkscape:pagecheckerboard="0"
     inkscape:deskcolor="#d1d1d1"
     showgrid="false"
     inkscape:zoom="2.9147913"
     inkscape:cx="10.292332"
     inkscape:cy="-47.516266"
     inkscape:window-width="1850"
     inkscape:window-height="1016"
     inkscape:window-x="70"
     inkscape:window-y="27"
     inkscape:window-maximized="1"
     inkscape:current-layer="svg33" /><path
     d="M172.749 22.5L168.772 12.0384L164.794 22.5H162.191L157.78 5.38544H160.745L163.854 17.8236L168.772 5.09618L173.665 17.8236L176.798 5.38544H179.788L175.352 22.5H172.749ZM185.909 22.7411C184.077 22.7411 182.567 22.1545 181.378 20.9814C180.205 19.8083 179.618 18.3057 179.618 16.4737C179.618 14.69 180.213 13.2035 181.402 12.0143C182.591 10.8091 184.094 10.2064 185.909 10.2064C187.581 10.2064 188.963 10.7368 190.056 11.7974C191.164 12.858 191.719 14.3204 191.719 16.1845C191.719 16.5059 191.711 16.7951 191.695 17.0523H182.221C182.286 18.0325 182.663 18.828 183.354 19.4387C184.045 20.0333 184.905 20.3305 185.934 20.3305C187.476 20.3305 188.625 19.7199 189.381 18.4986L191.405 19.9449C190.248 21.809 188.416 22.7411 185.909 22.7411ZM182.342 15.1239H189.043C188.898 14.2882 188.521 13.6374 187.91 13.1714C187.316 12.6893 186.617 12.4482 185.813 12.4482C184.977 12.4482 184.23 12.6812 183.571 13.1473C182.928 13.6133 182.519 14.2722 182.342 15.1239ZM200.254 22.7411C199.434 22.7411 198.671 22.5643 197.964 22.2107C197.273 21.8411 196.743 21.3992 196.373 20.885V22.5H193.721V4.42124H196.373V12.0625C196.743 11.5483 197.273 11.1144 197.964 10.7609C198.671 10.3912 199.434 10.2064 200.254 10.2064C201.893 10.2064 203.267 10.8171 204.376 12.0384C205.501 13.2597 206.063 14.7382 206.063 16.4737C206.063 18.2093 205.501 19.6877 204.376 20.9091C203.267 22.1304 201.893 22.7411 200.254 22.7411ZM199.772 20.3305C200.816 20.3305 201.676 19.9609 202.351 19.2217C203.026 18.4825 203.363 17.5665 203.363 16.4737C203.363 15.381 203.026 14.465 202.351 13.7258C201.676 12.9866 200.816 12.6169 199.772 12.6169C198.711 12.6169 197.843 12.9866 197.168 13.7258C196.493 14.465 196.156 15.381 196.156 16.4737C196.156 17.5665 196.493 18.4825 197.168 19.2217C197.843 19.9609 198.711 20.3305 199.772 20.3305ZM207.751 17.0523V14.4489H214.235V17.0523H207.751ZM221.396 22.7893C220.03 22.7893 218.8 22.508 217.708 21.9456C216.615 21.3831 215.811 20.6359 215.297 19.7038L217.515 17.9442C218.463 19.4065 219.789 20.1377 221.492 20.1377C222.312 20.1377 222.978 19.9449 223.493 19.5592C224.007 19.1574 224.264 18.6432 224.264 18.0165C224.264 16.8755 223.453 16.0077 221.829 15.4131L219.949 14.7382C218.567 14.24 217.547 13.6052 216.888 12.8339C216.229 12.0465 215.9 11.0742 215.9 9.91718C215.9 8.45481 216.422 7.28974 217.466 6.42196C218.511 5.5381 219.845 5.09618 221.468 5.09618C223.637 5.09618 225.365 5.87558 226.65 7.43437L224.698 9.33866C223.814 8.27804 222.729 7.74773 221.444 7.74773C220.689 7.74773 220.046 7.9245 219.515 8.27804C219.001 8.63158 218.744 9.11368 218.744 9.72434C218.744 10.3189 218.937 10.793 219.323 11.1465C219.724 11.484 220.399 11.8295 221.347 12.1831L223.083 12.8339C224.401 13.3321 225.405 13.9829 226.096 14.7864C226.787 15.5899 227.125 16.6103 227.108 17.8477C227.108 19.3262 226.578 20.5234 225.518 21.4394C224.457 22.3393 223.083 22.7893 221.396 22.7893ZM229.435 22.5V5.38544H234.69C237.229 5.38544 239.358 6.20501 241.078 7.84415C242.797 9.48329 243.657 11.5161 243.657 13.9427C243.657 16.3693 242.797 18.4021 241.078 20.0413C239.358 21.6804 237.229 22.5 234.69 22.5H229.435ZM232.255 19.8726H234.69C236.49 19.8726 237.952 19.3101 239.077 18.1852C240.218 17.0603 240.789 15.6461 240.789 13.9427C240.789 12.2393 240.218 10.8251 239.077 9.70024C237.952 8.57534 236.49 8.01289 234.69 8.01289H232.255V19.8726ZM257.15 22.5L248.834 14.4971V22.5H246.038V5.38544H248.834V12.7616L255.704 5.38544H259.271L251.654 13.5811L260.959 22.5H257.15Z"
     fill="#888888"
     id="path14" /><defs
     id="defs33"><linearGradient
       id="paint0_linear_27730_24007"
       x1="17.5153"
       y1="3.57726e-06"
       x2="17.5153"
       y2="28.0291"
       gradientUnits="userSpaceOnUse"><stop
         stop-color="#1D273D"
         id="stop14" /><stop
         offset="1"
         stop-color="#0D0F13"
         id="stop15" /></linearGradient><linearGradient
       id="paint1_linear_27730_24007"
       x1="5.79402"
       y1="8.72604"
       x2="8.17142"
       y2="5.54468"
       gradientUnits="userSpaceOnUse"><stop
         stop-color="#4462FE"
         id="stop16" /><stop
         offset="1"
         stop-color="#7D69FA"
         id="stop17" /></linearGradient><linearGradient
       id="paint2_linear_27730_24007"
       x1="5.56224"
       y1="8.7517"
       x2="8.50421"
       y2="8.60077"
       gradientUnits="userSpaceOnUse"><stop
         stop-color="#3757FD"
         id="stop18" /><stop
         offset="1"
         stop-color="#6980FA"
         id="stop19" /></linearGradient><linearGradient
       id="paint3_linear_27730_24007"
       x1="5.56224"
       y1="8.7517"
       x2="8.50421"
       y2="8.60077"
       gradientUnits="userSpaceOnUse"><stop
         stop-color="#2447FF"
         id="stop20" /><stop
         offset="1"
         stop-color="#6980FA"
         id="stop21" /></linearGradient><linearGradient
       id="paint4_linear_27730_24007"
       x1="5.74979"
       y1="22.168"
       x2="8.08506"
       y2="19.6916"
       gradientUnits="userSpaceOnUse"><stop
         stop-color="#BC3EE6"
         id="stop22" /><stop
         offset="1"
         stop-color="#D972F1"
         id="stop23" /></linearGradient><linearGradient
       id="paint5_linear_27730_24007"
       x1="26.9806"
       y1="15.1604"
       x2="29.1396"
       y2="12.8609"
       gradientUnits="userSpaceOnUse"><stop
         stop-color="#29BDFF"
         id="stop24" /><stop
         offset="1"
         stop-color="#96E7FB"
         id="stop25" /></linearGradient><linearGradient
       id="paint6_linear_27730_24007"
       x1="26.5543"
       y1="15.726"
       x2="29.5961"
       y2="15.5799"
       gradientUnits="userSpaceOnUse"><stop
         stop-color="#23BBFF"
         id="stop26" /><stop
         offset="1"
         stop-color="#85E7FF"
         id="stop27" /></linearGradient><linearGradient
       id="paint7_linear_27730_24007"
       x1="13.6673"
       y1="8.72604"
       x2="28.0808"
       y2="5.26491"
       gradientUnits="userSpaceOnUse"><stop
         stop-color="#23BBFF"
         id="stop28" /><stop
         offset="1"
         stop-color="#85E7FF"
         id="stop29" /></linearGradient><linearGradient
       id="paint8_linear_27730_24007"
       x1="13.8"
       y1="22.741"
       x2="27.638"
       y2="19.1913"
       gradientUnits="userSpaceOnUse"><stop
         stop-color="#2447FF"
         id="stop30" /><stop
         offset="1"
         stop-color="#6980FA"
         id="stop31" /></linearGradient><linearGradient
       id="paint9_linear_27730_24007"
       x1="7.60747"
       y1="15.7773"
       x2="20.826"
       y2="12.2278"
       gradientUnits="userSpaceOnUse"><stop
         stop-color="#6634FF"
         id="stop32" /><stop
         offset="1"
         stop-color="#9C6DFF"
         id="stop33" /></linearGradient><clipPath
       id="clip0_27730_24007"><rect
         width="151.273"
         height="28"
         fill="white"
         id="rect33" /></clipPath></defs><g
     style="fill:none"
     id="g33"
     transform="matrix(1.3619441,0,0,1.3949364,4.3034329,0.26491901)"><path
       fill-rule="evenodd"
       clip-rule="evenodd"
       d="m 50.9411,5.01074 c 0.557,0 1.019,0.09491 1.3861,0.28479 0.3671,0.18566 0.6604,0.41353 0.8798,0.68359 0.2194,0.2701 0.3882,0.5296 0.5063,0.7786 h 0.1266 V 5.13733 h 2.4559 V 18.5051 H 53.802 V 13.315 h -0.0887 c -0.1223,0.2531 -0.2974,0.5126 -0.5252,0.7784 -0.2237,0.2616 -0.5191,0.4832 -0.8862,0.6646 -0.3671,0.1772 -0.8207,0.2659 -1.3608,0.2659 -0.7511,0 -1.4263,-0.1942 -2.0255,-0.5824 -0.5991,-0.3882 -1.0739,-0.9536 -1.4241,-1.6962 -0.3502,-0.7469 -0.5253,-1.6584 -0.5253,-2.7344 0,-1.09708 0.1793,-2.01688 0.538,-2.75958 0.3586,-0.7426 0.8376,-1.30174 1.4368,-1.67729 0.6034,-0.37554 1.2701,-0.56329 2.0001,-0.56329 z m 0.7468,2.01278 c -0.4768,0 -0.8777,0.1266 -1.2026,0.3797 -0.3207,0.2532 -0.5633,0.6034 -0.7279,1.0507 -0.1645,0.4473 -0.2467,0.9621 -0.2467,1.5443 0,0.58658 0.0822,1.10768 0.2467,1.56338 0.1688,0.4515 0.4136,0.806 0.7343,1.0634 0.3249,0.2574 0.7236,0.3861 1.1962,0.3861 0.4599,0 0.8503,-0.1245 1.171,-0.3735 0.3249,-0.2531 0.5717,-0.6054 0.7405,-1.0569 0.1688,-0.4515 0.2532,-0.9791 0.2532,-1.58248 0,-0.6033 -0.0844,-1.1266 -0.2532,-1.5696 -0.1645,-0.4473 -0.4092,-0.7933 -0.7341,-1.038 -0.3207,-0.2448 -0.7132,-0.3671 -1.1774,-0.3671 z"
       fill="#ffffff"
       id="path1-3" /><path
       d="m 31.0592,5.01074 c 1.1857,0 2.1182,0.25109 2.7976,0.75322 0.6836,0.50216 1.0929,1.18356 1.2279,2.04436 l -2.2786,0.1898 c -0.0506,-0.2109 -0.1477,-0.405 -0.2911,-0.5822 -0.1393,-0.1814 -0.327,-0.3249 -0.5633,-0.4304 -0.2363,-0.1097 -0.5212,-0.1646 -0.8545,-0.1646 -0.4473,0 -0.8229,0.095 -1.1267,0.2849 -0.3038,0.1899 -0.4557,0.4409 -0.4557,0.7531 0,0.2574 0.0992,0.4705 0.2975,0.6393 0.1983,0.1688 0.5338,0.306 1.0064,0.4115 l 1.7089,0.3544 c 0.9326,0.1941 1.6267,0.5063 2.0824,0.93668 0.4599,0.4304 0.6899,0.9959 0.6899,1.6963 0,0.6245 -0.1815,1.1731 -0.5443,1.6457 -0.3629,0.4726 -0.8629,0.8418 -1.5001,1.1076 -0.6371,0.2658 -1.3693,0.3988 -2.1963,0.3988 -1.2363,0 -2.228,-0.2595 -2.9749,-0.7785 -0.7426,-0.5191 -1.1814,-1.2343 -1.3165,-2.1458 l 2.4432,-0.1771 c 0.0929,0.4135 0.2975,0.7278 0.614,0.943 0.3207,0.2152 0.7321,0.3228 1.2342,0.3228 0.5106,0 0.9199,-0.1012 1.2279,-0.3037 0.3123,-0.2068 0.4684,-0.4643 0.4684,-0.7723 C 32.7554,11.876 32.65,11.6608 32.4391,11.492 32.2323,11.319 31.9116,11.1882 31.477,11.0996 l -1.6711,-0.3418 c -0.9409,-0.1941 -1.6393,-0.5232 -2.095,-0.98738 -0.4515,-0.4641 -0.6772,-1.0549 -0.6772,-1.7723 0,-0.6118 0.1667,-1.1413 0.5,-1.5886 0.3376,-0.44726 0.8081,-0.79118 1.4115,-1.0317 0.6076,-0.24473 1.3123,-0.36708 2.114,-0.36708 z"
       fill="#ffffff"
       id="path2-6" /><path
       fill-rule="evenodd"
       clip-rule="evenodd"
       d="m 41.1773,5.01074 c 0.6203,0 1.2026,0.09913 1.747,0.29746 0.5443,0.19832 1.0233,0.50005 1.4368,0.90512 0.4135,0.4051 0.7363,0.9178 0.9684,1.5381 0.2363,0.616 0.3544,1.3439 0.3544,2.1836 v 0.72148 h -6.6961 c 0.003,0.5124 0.0997,0.9534 0.2907,1.3229 0.1941,0.3755 0.4663,0.6646 0.8166,0.8671 0.3502,0.2026 0.7616,0.3039 1.2342,0.3039 0.3164,0 0.6034,-0.0444 0.8608,-0.133 0.2616,-0.0928 0.4853,-0.2279 0.6709,-0.4051 0.1899,-0.1772 0.3333,-0.3945 0.4304,-0.6519 l 2.3166,0.2025 c -0.1308,0.5823 -0.3882,1.0908 -0.7722,1.5254 -0.384,0.4304 -0.8756,0.7659 -1.4748,1.0064 -0.5992,0.2363 -1.2891,0.3545 -2.0697,0.3545 -0.9874,0 -1.8376,-0.2026 -2.5508,-0.6077 -0.7131,-0.4093 -1.2617,-0.9874 -1.6456,-1.7342 -0.384,-0.7511 -0.576,-1.6372 -0.576,-2.6584 0,-0.99998 0.192,-1.87768 0.576,-2.63298 0.3882,-0.7595 0.9305,-1.3503 1.6267,-1.77226 0.6962,-0.42195 1.5148,-0.63292 2.4557,-0.63292 z m 0.0381,1.89878 c -0.4389,0 -0.825,0.1034 -1.1583,0.3102 -0.3334,0.2068 -0.595,0.4811 -0.7849,0.8228 -0.1683,0.306 -0.2618,0.6414 -0.281,1.0063 h 4.3255 c 0,-0.4135 -0.0886,-0.7806 -0.2658,-1.1012 -0.1773,-0.3249 -0.4241,-0.5782 -0.7406,-0.7596 -0.3122,-0.1857 -0.6772,-0.2785 -1.0949,-0.2785 z"
       fill="#ffffff"
       id="path3-7" /><path
       fill-rule="evenodd"
       clip-rule="evenodd"
       d="m 73.4181,5.01074 c 0.6202,10e-6 1.2026,0.09914 1.7469,0.29746 0.5443,0.19832 1.0232,0.50006 1.4367,0.90512 0.4135,0.4051 0.7364,0.9178 0.9685,1.5381 0.2363,0.616 0.3544,1.3439 0.3544,2.1836 v 0.72148 h -6.6962 c 0.003,0.5124 0.0998,0.9534 0.2908,1.3229 0.1941,0.3755 0.4662,0.6646 0.8165,0.8671 0.3502,0.2026 0.7617,0.3039 1.2343,0.3039 0.3164,0 0.6033,-0.0444 0.8607,-0.133 0.2616,-0.0928 0.4853,-0.2279 0.6709,-0.4051 0.1899,-0.1772 0.3334,-0.3945 0.4305,-0.6519 l 2.3166,0.2025 c -0.1308,0.5823 -0.3883,1.0908 -0.7723,1.5254 -0.384,0.4304 -0.8755,0.7659 -1.4747,1.0064 -0.5992,0.2363 -1.2891,0.3545 -2.0697,0.3545 -0.9874,0 -1.8377,-0.2026 -2.5509,-0.6077 -0.713,-0.4093 -1.2616,-0.9874 -1.6455,-1.7342 -0.384,-0.7511 -0.576,-1.6372 -0.576,-2.6584 0,-0.99998 0.192,-1.87768 0.576,-2.63298 0.3882,-0.7595 0.9304,-1.3503 1.6266,-1.77226 0.6962,-0.42197 1.5149,-0.63292 2.4559,-0.63292 z m 0.0379,1.89878 c -0.4389,0 -0.8249,0.1034 -1.1582,0.3102 -0.3334,0.2068 -0.5951,0.4811 -0.785,0.8228 -0.1682,0.306 -0.2617,0.6414 -0.2809,1.0063 h 4.3255 c 0,-0.4135 -0.0886,-0.7806 -0.2658,-1.1012 -0.1773,-0.3249 -0.4241,-0.5782 -0.7406,-0.7596 -0.3122,-0.1857 -0.6773,-0.2785 -1.095,-0.2785 z"
       fill="#ffffff"
       id="path4-5" /><path
       d="m 94.6961,5.01074 c 0.818,0 1.54,0.14978 2.164,0.44938 0.625,0.29537 1.12,0.7152 1.488,1.2595 0.367,0.5402 0.571,1.1731 0.614,1.8989 h -2.368 c -0.08,-0.4768 -0.2801,-0.8672 -0.6011,-1.171 -0.316,-0.308 -0.7359,-0.462 -1.2589,-0.462 -0.444,0 -0.832,0.1203 -1.165,0.3608 -0.329,0.2363 -0.587,0.5801 -0.772,1.0316 -0.186,0.4473 -0.279,0.9874 -0.279,1.6203 0,0.64138 0.091,1.18998 0.272,1.64568 0.186,0.4515 0.443,0.7997 0.773,1.0444 0.333,0.2405 0.723,0.3608 1.171,0.3608 0.324,0 0.616,-0.0633 0.873,-0.1899 0.257,-0.1308 0.47,-0.3165 0.639,-0.557 0.173,-0.2448 0.289,-0.5401 0.348,-0.8861 h 2.368 c -0.047,0.7131 -0.2491,1.3439 -0.6081,1.8925 -0.354,0.5443 -0.8419,0.9705 -1.4619,1.2786 -0.616,0.308 -1.344,0.462 -2.184,0.462 -0.983,0 -1.827,-0.2131 -2.532,-0.6393 -0.704,-0.4262 -1.2464,-1.0148 -1.6262,-1.7659 -0.3755,-0.7553 -0.5634,-1.6246 -0.5634,-2.6078 0,-0.99158 0.1921,-1.86498 0.5761,-2.62028 0.384,-0.7553 0.9265,-1.344 1.6265,-1.76598 0.705,-0.42617 1.54,-0.6392 2.507,-0.6392 z"
       fill="#ffffff"
       id="path5-3" /><path
       fill-rule="evenodd"
       clip-rule="evenodd"
       d="m 104.841,5.01074 c 0.62,10e-6 1.202,0.09915 1.746,0.29746 0.545,0.19832 1.024,0.50005 1.437,0.90512 0.414,0.4051 0.737,0.9178 0.969,1.5381 0.236,0.616 0.354,1.3439 0.354,2.1836 v 0.72148 h -6.696 c 0.003,0.5124 0.1,0.9534 0.291,1.3229 0.194,0.3755 0.466,0.6646 0.816,0.8671 0.35,0.2026 0.762,0.3039 1.234,0.3039 0.317,0 0.604,-0.0444 0.861,-0.133 0.262,-0.0928 0.486,-0.2279 0.671,-0.4051 0.19,-0.1772 0.334,-0.3945 0.431,-0.6519 l 2.316,0.2025 c -0.131,0.5823 -0.388,1.0908 -0.772,1.5254 -0.384,0.4304 -0.876,0.7659 -1.475,1.0064 -0.599,0.2363 -1.289,0.3545 -2.069,0.3545 -0.988,0 -1.838,-0.2026 -2.551,-0.6077 -0.713,-0.4093 -1.262,-0.9874 -1.646,-1.7342 -0.384,-0.7511 -0.576,-1.6372 -0.576,-2.6584 0,-0.99998 0.192,-1.87768 0.576,-2.63298 0.388,-0.7595 0.931,-1.3503 1.627,-1.77226 0.696,-0.42196 1.515,-0.63292 2.456,-0.63292 z m 0.038,1.89878 c -0.439,0 -0.825,0.1034 -1.159,0.3102 -0.333,0.2068 -0.595,0.4811 -0.785,0.8228 -0.168,0.306 -0.261,0.6414 -0.281,1.0063 h 4.326 c 0,-0.4135 -0.089,-0.7806 -0.266,-1.1012 -0.177,-0.3249 -0.424,-0.5782 -0.74,-0.7596 -0.313,-0.1857 -0.678,-0.2785 -1.095,-0.2785 z"
       fill="#ffffff"
       id="path6-5" /><path
       d="m 60.8709,10.9099 c 0.0043,0.5949 0.1667,1.0675 0.4874,1.4177 0.3207,0.346 0.7448,0.519 1.2722,0.519 0.3334,0 0.6499,-0.0781 0.9495,-0.2342 0.2995,-0.1603 0.5442,-0.3945 0.7341,-0.7025 0.1899,-0.3123 0.2827,-0.7005 0.2785,-1.1646 V 5.13745 h 2.4939 V 14.8594 H 64.6813 V 13.1125 H 64.58 c -0.2195,0.5569 -0.5824,1.0085 -1.0887,1.3545 -0.5021,0.346 -1.1182,0.519 -1.8482,0.519 -0.6413,0 -1.2089,-0.1456 -1.7025,-0.4367 -0.4895,-0.2912 -0.8714,-0.709 -1.1457,-1.2533 -0.2742,-0.5443 -0.4135,-1.2005 -0.4177,-1.9685 V 5.13745 h 2.4937 z"
       fill="#ffffff"
       id="path7-6" /><path
       d="m 84.9919,5.01074 c 0.6751,0 1.2616,0.14555 1.7596,0.43671 0.5021,0.29115 0.8924,0.70897 1.1709,1.25327 0.2785,0.5443 0.4156,1.2004 0.4114,1.9684 V 14.8593 H 85.84 V 9.08682 c 0.0043,-0.6245 -0.1562,-1.1118 -0.4811,-1.462 -0.3207,-0.3502 -0.7637,-0.5254 -1.3291,-0.5254 -0.3798,0 -0.7173,0.0823 -1.0127,0.2469 -0.2911,0.1645 -0.519,0.405 -0.6836,0.7215 -0.1646,0.3122 -0.2489,0.6899 -0.2532,1.1329 V 14.8593 H 79.5865 V 5.13733 h 2.3799 v 1.68359 h 0.1139 c 0.2195,-0.557 0.5781,-0.99789 1.0761,-1.3228 0.5021,-0.32491 1.1139,-0.48738 1.8355,-0.48738 z"
       fill="#ffffff"
       id="path8-2" /><path
       d="m 18.6912,9.88297 c 0,-0.8252 -0.6691,-1.4943 -1.4943,-1.4943 -0.8253,0 -1.4943,0.6691 -1.4943,1.4943 0,0.82533 0.669,1.49433 1.4943,1.49433 0.8252,0 1.4943,-0.669 1.4943,-1.49433 z"
       fill="#ffffff"
       id="path9-9" /><path
       d="m 3.5886,4.8942 c 0,-0.82528 -0.669,-1.4943 -1.4943,-1.4943 -0.8253,0 -1.494324,0.66902 -1.494324,1.4943 0,0.82528 0.669024,1.4943 1.494324,1.4943 0.8253,0 1.4943,-0.66902 1.4943,-1.4943 z"
       fill="#ffffff"
       id="path10-1" /><path
       d="m 3.5886,14.9513 c 0,-0.8253 -0.669,-1.4943 -1.4943,-1.4943 -0.8253,0 -1.494324,0.669 -1.494324,1.4943 0,0.8253 0.669024,1.4943 1.494324,1.4943 0.8253,0 1.4943,-0.669 1.4943,-1.4943 z"
       fill="#ffffff"
       id="path11-2" /><path
       d="m 18.8206,14.872 c 0,-0.6888 -0.5584,-1.2472 -1.2472,-1.2472 H 6.49903 c -0.6888,0 -1.2472,0.5584 -1.2472,1.2472 0,0.6888 0.5584,1.2472 1.2472,1.2472 H 17.5734 c 0.6888,0 1.2472,-0.5584 1.2472,-1.2472 z"
       fill="#ffffff"
       id="path12-7" /><path
       d="m 14.0393,9.88294 c 0,-0.6888 -0.5584,-1.2472 -1.2472,-1.2472 H 1.84719 c -0.6888,0 -1.247214,0.5584 -1.247214,1.2472 0,0.68886 0.558414,1.24716 1.247214,1.24716 H 12.7921 c 0.6888,0 1.2472,-0.5583 1.2472,-1.24716 z"
       fill="#ffffff"
       id="path13-0" /><path
       d="m 18.8206,4.89418 c 0,-0.68881 -0.5584,-1.24721 -1.2472,-1.24721 H 6.49903 c -0.6888,0 -1.2472,0.5584 -1.2472,1.24721 0,0.68881 0.5584,1.2472 1.2472,1.2472 H 17.5734 c 0.6888,0 1.2472,-0.55839 1.2472,-1.2472 z"
       fill="#ffffff"
       id="path14-9" /></g></svg>
